<svg width="304" height="310" viewBox="0 0 304 310" fill="none" xmlns="http://www.w3.org/2000/svg">
<path d="M18.7479 205.109C14.3649 187.273 27.8179 172.457 42.3299 164.445C32.0509 163.84 22.5269 161.425 15.1189 155.222C-3.0201 140.109 -3.77611 117.126 9.07389 98.9935C23.8879 78.1305 51.3999 69.6655 74.9799 80.8505C78.3059 82.3605 81.6319 84.3295 84.9589 86.4445C78.3069 77.5265 72.1089 67.0945 69.0839 56.3605C64.8539 41.3955 66.3649 25.9795 80.8769 13.8855C91.1559 5.56948 104.156 4.51248 115.947 10.5595C129.703 17.5105 139.379 32.6295 143.306 47.1395C143.611 16.9095 165.679 -1.53652 194.855 0.432476C221.609 2.39548 243.378 22.0455 242.32 50.1625C241.718 64.6765 236.882 72.9885 231.136 80.2445C245.499 72.9885 263.64 70.7215 278.452 77.8265C284.643 80.8495 289.636 85.0825 292.964 90.5255C307.175 113.349 286.46 138.138 265.148 146.152C280.113 148.269 293.718 161.423 299.461 174.877C306.113 189.99 304.754 206.623 296.137 220.529C288.125 233.525 274.977 241.99 259.559 242.9C246.555 243.654 233.555 238.97 223.274 231.107C225.239 235.943 226.602 241.236 227.055 246.228C229.016 264.669 220.555 283.412 202.563 289.31C184.274 295.205 167.95 282.958 159.028 267.693C157.215 295.205 129.856 312.888 103.403 309.111C79.9689 305.783 63.0399 287.798 62.2839 263.611C61.8309 246.228 68.9359 235.494 79.6689 222.795C73.9249 225.67 67.1199 227.783 60.4739 228.69C42.4819 230.961 23.2809 223.551 18.7479 205.109Z" fill="#010101"/>
<path fill-rule="evenodd" clip-rule="evenodd" d="M147.543 183.492C162.656 183.492 175.055 171.246 175.055 156.133C175.055 141.016 162.657 128.621 147.543 128.621C132.422 128.621 120.18 141.016 120.18 156.133C120.18 171.246 132.422 183.492 147.543 183.492Z" fill="#F8ED37"/>
<path fill-rule="evenodd" clip-rule="evenodd" d="M141.645 271.324C144.819 261.949 139.379 216.597 137.866 201.183C133.03 200.124 128.643 198.456 124.413 196.038C119.727 201.026 110.657 212.065 107.181 216.143C101.286 223.1 95.6927 230.049 89.9467 236.706C84.3547 243.202 78.7607 251.522 79.0637 263.159C80.1207 298.227 130.457 303.973 141.645 271.324ZM111.412 127.563C98.7147 118.34 80.8767 102.167 67.8787 95.9694C35.6777 80.8524 0.454742 121.213 25.8537 142.379C38.5507 152.957 68.7837 145.246 89.3397 142.379C94.1797 141.621 99.7717 141.166 104.156 140.563C105.82 135.879 108.236 131.496 111.412 127.563ZM98.4117 76.3164C104.457 84.1794 123.051 105.035 131.668 112.746C133.633 111.994 135.748 111.389 137.713 110.932C135.748 96.1214 128.797 59.8404 127.588 53.6434C123.356 33.5364 105.065 15.8504 91.6087 26.8874C75.1307 40.4884 88.7377 63.4674 98.4117 76.3164ZM160.242 43.5144C159.179 56.6644 163.262 98.0864 165.379 113.502C169.309 115.166 173.086 117.43 176.41 120.002C183.062 113.205 208.613 81.4554 212.543 76.6194C218.59 69.0604 224.934 62.7114 225.543 49.5584C227.055 10.7114 163.414 4.51439 160.242 43.5144ZM249.43 91.2794C232.492 95.0604 217.985 110.629 207.098 119.705C200.903 124.693 194.856 129.982 188.504 134.818C189.567 136.629 190.32 138.601 191.074 140.713C200.301 138.904 209.672 137.996 218.894 136.785C240.355 134.06 259.859 134.971 273.156 121.365C291.145 104.129 274.672 85.6894 249.43 91.2794ZM263.336 162.785C255.777 160.82 210.578 165.051 192.434 167.015C191.379 171.245 189.868 175.179 187.75 178.808C197.727 187.578 221.457 207.078 229.773 214.628C246.101 229.601 269.832 231.261 281.925 211.765C294.473 191.203 281.324 167.777 263.336 162.785ZM200.602 225.52L172.485 194.985C168.403 197.555 164.02 199.52 159.18 200.731C160.696 210.704 166.133 239.731 170.063 251.672C174.45 265.43 189.868 282.055 203.626 269.508C215.266 259.223 211.031 236.855 200.602 225.52Z" fill="#55B948"/>
<path fill-rule="evenodd" clip-rule="evenodd" d="M37.6449 206.169C46.8639 217.505 70.5979 211.161 79.2149 203.45L107.029 178.204C105.064 174.427 103.55 170.493 102.642 166.263C90.2489 168.38 66.5169 173.517 60.9229 174.88C46.2619 178.509 27.3629 193.325 37.6449 206.169Z" fill="#ED1C24"/>
</svg>
